<?xml version="1.0" encoding="UTF-8"?>
<svg  id="Capa_1" xmlns="http://www.w3.org/2000/svg" version="1.1" xmlns:xlink="http://www.w3.org/1999/xlink" viewBox="0 0 800 800">
  <path d="M800,500v-200c0-53-59-96-112-96H96C43,204,0,247,0,300v200c0,53,43,96,96,96h592c53,0,112-43,112-96ZM558.7,579.2h-198.4l-6-46.4h81.7l122.6,46.4ZM616.8,554.8c-66.3-17.3-144.8-37.7-144.8-37.7v-234.2l144.8-37.8s51.3,151.1,0,309.7ZM430.7,267.7h-76.4l5.9-46.4h193.1l-122.7,46.4ZM154.7,221.3h176.2l-5.8,46.4h-139.4l-31-46.4ZM104.6,247.8l56.7,37.7v234.2l-56.7,37.7V247.8ZM191,532.8h133.9l6,46.4h-170.9l31-46.4Z"
  />
</svg>