<svg viewBox="0 0 7.7 9" fill="none" xmlns="http://www.w3.org/2000/svg">
<path d="M6.75 2.16667L6.38875 7.22583C6.37378 7.43608 6.27971 7.63284 6.12546 7.77649C5.97122 7.92014 5.76827 8 5.5575 8H2.10917C1.89839 8 1.69544 7.92014 1.5412 7.77649C1.38696 7.63284 1.29288 7.43608 1.27792 7.22583L0.916667 2.16667M3 3.83333V6.33333M4.66667 3.83333V6.33333M5.08333 2.16667V0.916667C5.08333 0.80616 5.03943 0.700179 4.96129 0.622039C4.88315 0.543899 4.77717 0.5 4.66667 0.5H3C2.88949 0.5 2.78351 0.543899 2.70537 0.622039C2.62723 0.700179 2.58333 0.80616 2.58333 0.916667V2.16667M0.5 2.16667H7.16667" stroke="#FF0000" stroke-linecap="round" stroke-linejoin="round"/>
</svg>
